<svg width="184" height="190" viewBox="0 0 184 190" fill="none" xmlns="http://www.w3.org/2000/svg">
<path d="M33.1393 36.4134C-4.9713 55.0206 -2.54117 83.7644 3.43771 95.8105C5.36374 99.8416 11.6375 106.145 21.1815 99.2705C20.7953 99.6155 50.6319 82.2369 46.8328 49.4846C46.2542 45.1275 42.7055 36.4134 33.1393 36.4134Z" fill="url(#paint0_radial_246_1694)"/>
<path d="M72.677 176.544C71.8402 176.469 70.9376 176.365 69.9769 176.228C70.6841 180.626 75.7243 189.539 90.2279 190C95.7568 189.016 104.577 184.865 95.6282 176.126C85.0794 177.34 76.9819 177.131 72.677 176.544Z" fill="url(#paint1_radial_246_1694)"/>
<path d="M104.886 174.776C100.9 177.224 95.6282 183.08 106.429 186.924C117.229 190.769 122.887 177.331 124.365 170.131C117.45 172.216 110.898 173.718 104.886 174.776Z" fill="url(#paint2_radial_246_1694)"/>
<path d="M101.221 0.275332C78.5402 -2.95402 46.3828 23.0218 33.1393 36.4134C42.7055 36.4134 46.2542 45.1275 46.8328 49.4846C50.6319 82.2369 20.7953 99.6155 21.1815 99.2705C11.6375 106.145 5.36374 99.8416 3.43771 95.8105C3.69487 106.447 6.02213 130.18 13.2739 140.022C27.3172 164.696 55.3638 174.15 69.9769 176.228C70.9376 176.365 71.8402 176.469 72.677 176.544C76.9819 177.131 85.0794 177.34 95.6282 176.126C98.5371 175.792 101.632 175.349 104.886 174.776C110.898 173.718 117.45 172.216 124.365 170.131C128.309 168.943 132.37 167.565 136.516 165.972C166.14 154.592 170.718 130.218 169.304 119.454C160.663 112.226 160.046 78.7667 160.817 62.9402C158.657 42.0263 147.831 25.2644 142.688 19.4977C138.316 14.4358 123.903 3.50469 101.221 0.275332Z" fill="url(#paint3_radial_246_1694)"/>
<path d="M101.221 0.275332C78.5402 -2.95402 46.3828 23.0218 33.1393 36.4134C42.7055 36.4134 46.2542 45.1275 46.8328 49.4846C50.6319 82.2369 20.7953 99.6155 21.1815 99.2705C11.6375 106.145 5.36374 99.8416 3.43771 95.8105C3.69487 106.447 6.02213 130.18 13.2739 140.022C27.3172 164.696 55.3638 174.15 69.9769 176.228C70.9376 176.365 71.8402 176.469 72.677 176.544C76.9819 177.131 85.0794 177.34 95.6282 176.126C98.5371 175.792 101.632 175.349 104.886 174.776C110.898 173.718 117.45 172.216 124.365 170.131C128.309 168.943 132.37 167.565 136.516 165.972C166.14 154.592 170.718 130.218 169.304 119.454C160.663 112.226 160.046 78.7667 160.817 62.9402C158.657 42.0263 147.831 25.2644 142.688 19.4977C138.316 14.4358 123.903 3.50469 101.221 0.275332Z" fill="url(#paint4_radial_246_1694)" fill-opacity="0.2"/>
<path d="M160.817 62.9402C160.046 78.7667 160.663 112.226 169.304 119.454C173.804 119.71 183.036 115.34 183.961 95.8105C184.887 76.2806 168.918 65.7595 160.817 62.9402Z" fill="url(#paint5_radial_246_1694)"/>
<path d="M160.817 62.9402C160.046 78.7667 160.663 112.226 169.304 119.454C173.804 119.71 183.036 115.34 183.961 95.8105C184.887 76.2806 168.918 65.7595 160.817 62.9402Z" fill="url(#paint6_radial_246_1694)" fill-opacity="0.2"/>
<ellipse cx="83.7045" cy="68.8159" rx="5.01455" ry="6.15115" fill="#6D614B"/>
<ellipse cx="135.778" cy="77.0816" rx="3.85735" ry="5.57448" fill="#8C8569"/>
<path d="M87.9476 69.3928C87.9476 72.6838 86.5975 74.1984 83.5116 75.1595C80.04 76.2407 77.9185 73.6449 77.9185 70.3539C77.9185 67.0629 80.7421 62.8572 83.5116 62.8572C86.2811 62.8572 87.9476 66.1018 87.9476 69.3928Z" fill="#6D614B" fill-opacity="0.54"/>
<path d="M120.413 85.924C120.027 78.4823 103.928 77.469 99.6846 82.2735C97.8221 84.3824 100.891 88.3746 105.755 89.7684C111.348 90.3451 120.629 90.0991 120.413 85.924Z" fill="#8E6239" fill-opacity="0.46"/>
<path d="M100.842 80.351C105.085 75.5465 120.707 78.6224 121.093 86.0641C121.478 93.5058 96.5985 85.1555 100.842 80.351Z" fill="url(#paint7_radial_246_1694)"/>
<g filter="url(#filter0_f_246_1694)">
<ellipse cx="2.83552" cy="0.771179" rx="2.83552" ry="0.771179" transform="matrix(0.957179 0.289496 -0.291272 0.95664 110.384 82.2717)" fill="white" fill-opacity="0.5"/>
</g>
<g filter="url(#filter1_f_246_1694)">
<ellipse cx="2.9607" cy="0.997675" rx="2.9607" ry="0.997675" transform="matrix(0.867241 -0.497889 0.500394 0.865798 89.8762 184.792)" fill="white" fill-opacity="0.21"/>
</g>
<g filter="url(#filter2_f_246_1694)">
<ellipse cx="3.44039" cy="0.822922" rx="3.44039" ry="0.822922" transform="matrix(0.828581 -0.559869 0.56244 0.826838 111.092 184.927)" fill="white" fill-opacity="0.21"/>
</g>
<defs>
<filter id="filter0_f_246_1694" x="106.149" y="78.7266" width="13.4473" height="10.2075" filterUnits="userSpaceOnUse" color-interpolation-filters="sRGB">
<feFlood flood-opacity="0" result="BackgroundImageFix"/>
<feBlend mode="normal" in="SourceGraphic" in2="BackgroundImageFix" result="shape"/>
<feGaussianBlur stdDeviation="2" result="effect1_foregroundBlur_246_1694"/>
</filter>
<filter id="filter1_f_246_1694" x="86.3269" y="178.473" width="13.2324" height="11.4175" filterUnits="userSpaceOnUse" color-interpolation-filters="sRGB">
<feFlood flood-opacity="0" result="BackgroundImageFix"/>
<feBlend mode="normal" in="SourceGraphic" in2="BackgroundImageFix" result="shape"/>
<feGaussianBlur stdDeviation="2" result="effect1_foregroundBlur_246_1694"/>
</filter>
<filter id="filter2_f_246_1694" x="107.517" y="177.638" width="13.7769" height="12.0867" filterUnits="userSpaceOnUse" color-interpolation-filters="sRGB">
<feFlood flood-opacity="0" result="BackgroundImageFix"/>
<feBlend mode="normal" in="SourceGraphic" in2="BackgroundImageFix" result="shape"/>
<feGaussianBlur stdDeviation="2" result="effect1_foregroundBlur_246_1694"/>
</filter>
<radialGradient id="paint0_radial_246_1694" cx="0" cy="0" r="1" gradientUnits="userSpaceOnUse" gradientTransform="translate(44.9381 65.7404) rotate(-138.786) scale(42.3034 46.8704)">
<stop offset="0.33" stop-color="#FFFEDF"/>
<stop offset="1" stop-color="#B59870"/>
</radialGradient>
<radialGradient id="paint1_radial_246_1694" cx="0" cy="0" r="1" gradientUnits="userSpaceOnUse" gradientTransform="translate(92.1905 184.342) rotate(-165.715) scale(27.2659 26.2396)">
<stop stop-color="#D1883F"/>
<stop offset="1" stop-color="#814219"/>
</radialGradient>
<radialGradient id="paint2_radial_246_1694" cx="0" cy="0" r="1" gradientUnits="userSpaceOnUse" gradientTransform="translate(118.035 182.036) rotate(-147.312) scale(16.7287 16.1239)">
<stop offset="0.33" stop-color="#C9813B"/>
<stop offset="1" stop-color="#945322"/>
</radialGradient>
<radialGradient id="paint3_radial_246_1694" cx="0" cy="0" r="1" gradientUnits="userSpaceOnUse" gradientTransform="translate(150.629 51.1315) rotate(154.454) scale(156.904 151.125)">
<stop offset="0.33" stop-color="#FFFEDF"/>
<stop offset="1" stop-color="#B59870"/>
</radialGradient>
<radialGradient id="paint4_radial_246_1694" cx="0" cy="0" r="1" gradientUnits="userSpaceOnUse" gradientTransform="translate(149.086 94.9584) rotate(145.343) scale(136.226 122.256)">
<stop offset="0.94" stop-color="#985D31" stop-opacity="0"/>
<stop offset="1" stop-color="#985D31"/>
</radialGradient>
<radialGradient id="paint5_radial_246_1694" cx="0" cy="0" r="1" gradientUnits="userSpaceOnUse" gradientTransform="translate(150.629 51.1315) rotate(154.454) scale(156.904 151.125)">
<stop offset="0.33" stop-color="#FFFEDF"/>
<stop offset="1" stop-color="#B59870"/>
</radialGradient>
<radialGradient id="paint6_radial_246_1694" cx="0" cy="0" r="1" gradientUnits="userSpaceOnUse" gradientTransform="translate(183.995 86.5006) rotate(173.256) scale(22.9169 46.2549)">
<stop offset="0.703852" stop-color="#985D31" stop-opacity="0"/>
<stop offset="1" stop-color="#985D31"/>
</radialGradient>
<radialGradient id="paint7_radial_246_1694" cx="0" cy="0" r="1" gradientUnits="userSpaceOnUse" gradientTransform="translate(114.627 84.0017) rotate(-165.646) scale(14.7321 9.57267)">
<stop offset="0.445" stop-color="#FFCF92"/>
<stop offset="0.8" stop-color="#E39E5D"/>
<stop offset="1" stop-color="#A77F5B"/>
</radialGradient>
</defs>
</svg>
