<svg xmlns="http://www.w3.org/2000/svg" width="126" height="133" fill="none"><path fill="url(#a)" d="M22.693 25.106C-3.404 37.936-1.74 57.753 2.354 66.059c1.319 2.78 5.615 7.125 12.15 2.385-.264.238 20.168-11.744 17.566-34.326-.396-3.004-2.826-9.012-9.377-9.012Z"/><path fill="url(#b)" d="M49.768 121.723a35.27 35.27 0 0 1-1.849-.219c.484 3.033 3.936 9.178 13.867 9.496 3.787-.678 9.827-3.541 3.698-9.566-7.223.837-12.768.693-15.716.289Z"/><path fill="url(#c)" d="M71.824 120.504c-2.73 1.687-6.34 5.725 1.057 8.375 7.396 2.651 11.27-6.614 12.282-11.578a115.422 115.422 0 0 1-13.339 3.203Z"/><path fill="url(#d)" d="M69.315.19C53.783-2.037 31.762 15.873 22.693 25.106c6.551 0 8.981 6.008 9.377 9.012C34.672 56.7 14.24 68.682 14.505 68.444c-6.536 4.74-10.832.394-12.15-2.385.175 7.333 1.769 23.697 6.735 30.482 9.616 17.012 28.822 23.531 38.829 24.963a35.27 35.27 0 0 0 1.849.219c2.948.404 8.493.548 15.716-.289a106 106 0 0 0 6.34-.93c4.117-.73 8.604-1.766 13.34-3.203 2.7-.82 5.48-1.769 8.32-2.868 20.286-7.846 23.421-24.65 22.452-32.073-5.917-4.983-6.339-28.053-5.811-38.964-1.479-14.42-8.893-25.977-12.415-29.953C94.717 9.953 84.846 2.416 69.315.19Z"/><path fill="url(#e)" fill-opacity=".2" d="M69.315.19C53.783-2.037 31.762 15.873 22.693 25.106c6.551 0 8.981 6.008 9.377 9.012C34.672 56.7 14.24 68.682 14.505 68.444c-6.536 4.74-10.832.394-12.15-2.385.175 7.333 1.769 23.697 6.735 30.482 9.616 17.012 28.822 23.531 38.829 24.963a35.27 35.27 0 0 0 1.849.219c2.948.404 8.493.548 15.716-.289a106 106 0 0 0 6.34-.93c4.117-.73 8.604-1.766 13.34-3.203 2.7-.82 5.48-1.769 8.32-2.868 20.286-7.846 23.421-24.65 22.452-32.073-5.917-4.983-6.339-28.053-5.811-38.964-1.479-14.42-8.893-25.977-12.415-29.953C94.717 9.953 84.846 2.416 69.315.19Z"/><path fill="url(#f)" d="M110.125 43.396c-.528 10.911-.106 33.981 5.811 38.964 3.082.177 9.404-2.836 10.038-16.301.634-13.466-10.302-20.72-15.849-22.663Z"/><path fill="url(#g)" fill-opacity=".2" d="M110.125 43.396c-.528 10.911-.106 33.981 5.811 38.964 3.082.177 9.404-2.836 10.038-16.301.634-13.466-10.302-20.72-15.849-22.663Z"/><ellipse cx="57.319" cy="47.447" fill="#6D614B" rx="3.434" ry="4.241"/><ellipse cx="92.979" cy="53.146" fill="#8C8569" rx="2.641" ry="3.843"/><path fill="#6D614B" fill-opacity=".54" d="M60.225 47.844c0 2.27-.925 3.314-3.038 3.977-2.377.745-3.83-1.045-3.83-3.314s1.934-5.169 3.83-5.169c1.897 0 3.038 2.237 3.038 4.506Z"/><path fill="#8E6239" fill-opacity=".46" d="M82.457 59.242c-.264-5.13-11.29-5.83-14.195-2.517-1.275 1.454.827 4.207 4.157 5.168 3.83.398 10.186.228 10.038-2.65Z"/><path fill="url(#h)" d="M69.055 55.4c2.905-3.313 13.603-1.192 13.867 3.939.264 5.13-16.773-.627-13.867-3.94Z"/><g filter="url(#i)"><ellipse cx="1.943" cy=".531" fill="#fff" fill-opacity=".5" rx="1.943" ry=".531" transform="rotate(16.936 -152.704 282.214) skewX(.111)"/></g><g filter="url(#j)"><ellipse cx="2.031" cy=".687" fill="#fff" fill-opacity=".21" rx="2.031" ry=".687" transform="rotate(-30.03 268.276 -51.023) skewX(-.173)"/></g><g filter="url(#k)"><ellipse cx="2.361" cy=".566" fill="#fff" fill-opacity=".21" rx="2.361" ry=".566" transform="matrix(.8268 -.5625 .55981 .82862 76.073 127.502)"/></g><defs><radialGradient id="a" cx="0" cy="0" r="1" gradientTransform="matrix(-21.7918 -19.21746 21.31078 -24.16553 30.773 45.326)" gradientUnits="userSpaceOnUse"><stop offset=".33" stop-color="#FFFEDF"/><stop offset="1" stop-color="#B59870"/></radialGradient><radialGradient id="b" cx="0" cy="0" r="1" gradientTransform="matrix(-18.09387 -4.63865 4.49089 -17.5175 63.13 127.099)" gradientUnits="userSpaceOnUse"><stop stop-color="#D1883F"/><stop offset="1" stop-color="#814219"/></radialGradient><radialGradient id="c" cx="0" cy="0" r="1" gradientTransform="matrix(-9.64127 -6.2291 6.02088 -9.31899 80.828 125.509)" gradientUnits="userSpaceOnUse"><stop offset=".33" stop-color="#C9813B"/><stop offset="1" stop-color="#945322"/></radialGradient><radialGradient id="d" cx="0" cy="0" r="1" gradientTransform="matrix(-96.94048 46.65222 -45.12623 -93.76957 103.148 35.254)" gradientUnits="userSpaceOnUse"><stop offset=".33" stop-color="#FFFEDF"/><stop offset="1" stop-color="#B59870"/></radialGradient><radialGradient id="e" cx="0" cy="0" r="1" gradientTransform="rotate(145.16 40.775 48.752) scale(93.4923 84.1052)" gradientUnits="userSpaceOnUse"><stop offset=".94" stop-color="#985D31" stop-opacity="0"/><stop offset="1" stop-color="#985D31"/></radialGradient><radialGradient id="f" cx="0" cy="0" r="1" gradientTransform="matrix(-96.94048 46.65222 -45.12623 -93.76957 103.148 35.254)" gradientUnits="userSpaceOnUse"><stop offset=".33" stop-color="#FFFEDF"/><stop offset="1" stop-color="#B59870"/></radialGradient><radialGradient id="g" cx="0" cy="0" r="1" gradientTransform="matrix(-15.58452 1.85558 -3.7702 -31.66484 125.997 59.64)" gradientUnits="userSpaceOnUse"><stop offset=".704" stop-color="#985D31" stop-opacity="0"/><stop offset="1" stop-color="#985D31"/></radialGradient><radialGradient id="h" cx="0" cy="0" r="1" gradientTransform="matrix(-9.77332 -2.5181 1.64604 -6.38867 78.494 57.917)" gradientUnits="userSpaceOnUse"><stop offset=".445" stop-color="#FFCF92"/><stop offset=".8" stop-color="#E39E5D"/><stop offset="1" stop-color="#A77F5B"/></radialGradient><filter id="i" width="11.73" height="9.522" x="71.428" y="53.038" color-interpolation-filters="sRGB" filterUnits="userSpaceOnUse"><feFlood flood-opacity="0" result="BackgroundImageFix"/><feBlend in="SourceGraphic" in2="BackgroundImageFix" result="shape"/><feGaussianBlur result="effect1_foregroundBlur_246_1689" stdDeviation="2"/></filter><filter id="j" width="11.583" height="10.356" x="57.854" y="121.81" color-interpolation-filters="sRGB" filterUnits="userSpaceOnUse"><feFlood flood-opacity="0" result="BackgroundImageFix"/><feBlend in="SourceGraphic" in2="BackgroundImageFix" result="shape"/><feGaussianBlur result="effect1_foregroundBlur_246_1689" stdDeviation="2"/></filter><filter id="k" width="11.956" height="10.818" x="72.365" y="121.234" color-interpolation-filters="sRGB" filterUnits="userSpaceOnUse"><feFlood flood-opacity="0" result="BackgroundImageFix"/><feBlend in="SourceGraphic" in2="BackgroundImageFix" result="shape"/><feGaussianBlur result="effect1_foregroundBlur_246_1689" stdDeviation="2"/></filter></defs></svg>