<?xml version="1.0" standalone="no"?>
<!DOCTYPE svg PUBLIC "-//W3C//DTD SVG 20010904//EN"
 "http://www.w3.org/TR/2001/REC-SVG-20010904/DTD/svg10.dtd">
<svg version="1.0" xmlns="http://www.w3.org/2000/svg"
 width="308.000000pt" height="388.000000pt" viewBox="0 0 308.000000 388.000000"
 preserveAspectRatio="xMidYMid meet">

<g transform="translate(0.000000,388.000000) scale(0.100000,-0.100000)"
fill="#000000" stroke="none">
<path d="M1536 3869 c-72 -17 -180 -76 -252 -137 l-71 -60 -104 5 c-126 7
-194 -6 -288 -53 -197 -99 -319 -308 -361 -623 -34 -249 86 -572 264 -714 76
-60 102 -68 177 -56 209 33 449 170 677 384 71 67 92 93 92 113 0 48 12 55
100 60 221 13 484 -97 695 -289 l54 -50 -6 38 c-10 67 -52 164 -104 242 l-50
75 -3 171 c-4 180 -12 239 -53 375 -78 262 -240 437 -460 498 -84 24 -252 35
-307 21z"/>
<path d="M318 1625 c-15 -9 -38 -39 -54 -72 -24 -49 -28 -69 -28 -143 0 -74 4
-94 28 -144 55 -113 137 -113 192 0 24 50 28 70 28 144 0 74 -4 94 -28 143
-17 36 -38 63 -56 72 -35 18 -48 18 -82 0z"/>
<path d="M1055 1586 c-130 -58 -162 -271 -59 -386 63 -69 144 -76 211 -17 98
86 106 258 17 357 -50 55 -111 72 -169 46z"/>
</g>
</svg>
